<svg width="40" height="39" viewBox="0 0 40 39" fill="none" xmlns="http://www.w3.org/2000/svg">
<g clip-path="url(#clip0_7_12)" filter="url(#filter0_d_7_12)">
<path fill-rule="evenodd" clip-rule="evenodd" d="M28.512 30.372C28.9414 30.676 29.4947 30.752 29.988 30.5653C30.4814 30.3773 30.844 29.956 30.9534 29.4453C32.112 24 34.9227 10.2173 35.9774 5.26395C36.0574 4.89062 35.924 4.50262 35.6307 4.25329C35.3374 4.00395 34.9307 3.93195 34.568 4.06662C28.9774 6.13595 11.76 12.596 4.72271 15.2C4.27604 15.3653 3.98538 15.7946 4.00004 16.2653C4.01604 16.7373 4.33338 17.1466 4.79071 17.284C7.94671 18.228 12.0894 19.5413 12.0894 19.5413C12.0894 19.5413 14.0254 25.388 15.0347 28.3613C15.1614 28.7346 15.4534 29.028 15.8387 29.1293C16.2227 29.2293 16.6334 29.124 16.92 28.8533C18.5414 27.3226 21.048 24.956 21.048 24.956C21.048 24.956 25.8107 28.448 28.512 30.372V30.372ZM13.832 18.8026L16.0707 26.1866L16.568 21.5106C16.568 21.5106 25.2174 13.7093 30.148 9.26262C30.292 9.13195 30.312 8.91329 30.192 8.75995C30.0734 8.60662 29.8547 8.57062 29.6907 8.67462C23.976 12.324 13.832 18.8026 13.832 18.8026Z" fill="white"/>
</g>
<defs>
<filter id="filter0_d_7_12" x="0" y="0" width="40" height="40" filterUnits="userSpaceOnUse" color-interpolation-filters="sRGB">
<feFlood flood-opacity="0" result="BackgroundImageFix"/>
<feColorMatrix in="SourceAlpha" type="matrix" values="0 0 0 0 0 0 0 0 0 0 0 0 0 0 0 0 0 0 127 0" result="hardAlpha"/>
<feOffset dy="4"/>
<feGaussianBlur stdDeviation="2"/>
<feComposite in2="hardAlpha" operator="out"/>
<feColorMatrix type="matrix" values="0 0 0 0 0 0 0 0 0 0 0 0 0 0 0 0 0 0 0.25 0"/>
<feBlend mode="normal" in2="BackgroundImageFix" result="effect1_dropShadow_7_12"/>
<feBlend mode="normal" in="SourceGraphic" in2="effect1_dropShadow_7_12" result="shape"/>
</filter>
<clipPath id="clip0_7_12">
<rect width="32" height="32" fill="white" transform="translate(4)"/>
</clipPath>
</defs>
</svg>
