<svg width="32" height="32" viewBox="0 0 32 32" fill="none" xmlns="http://www.w3.org/2000/svg">
<g clip-path="url(#clip0_6_6)">
<path d="M17.5493 25.3253C18.3613 25.3253 18.6933 24.784 18.684 24.1053C18.6427 21.5493 19.636 20.1733 21.4293 21.9666C23.4133 23.9506 23.824 25.3253 26.2333 25.3253H30.5C31.5773 25.3253 32.0013 24.9786 32.0013 24.4346C32.0013 23.284 30.1067 21.2533 28.5013 19.7626C26.2533 17.676 26.148 17.6266 28.084 15.1146C30.4853 11.996 33.6267 7.99996 30.848 7.99996H25.54C24.5107 7.99996 24.436 8.57996 24.0693 9.44396C22.7427 12.5733 20.2213 16.6266 19.264 16.0066C18.2627 15.36 18.7213 12.7986 18.7973 8.99196C18.8173 7.98663 18.812 7.29729 17.276 6.93996C16.4373 6.74663 15.6213 6.66663 14.864 6.66663C11.8333 6.66663 9.74267 7.93729 10.9307 8.15863C13.0253 8.54929 12.824 13.0813 12.336 15.0386C11.4853 18.4466 8.288 12.34 6.956 9.29863C6.63467 8.56796 6.536 7.99996 5.38933 7.99996H1.04933C0.393333 7.99996 0 8.21329 0 8.68796C0 9.49063 3.94667 17.648 7.71467 21.7146C11.3893 25.6813 15.0213 25.3253 17.5493 25.3253V25.3253Z" fill="white"/>
</g>
<defs>
<clipPath id="clip0_6_6">
<rect width="32" height="32" fill="white"/>
</clipPath>
</defs>
</svg>
